<?xml version="1.0" standalone="no"?>
<!DOCTYPE svg PUBLIC "-//W3C//DTD SVG 20010904//EN"
 "http://www.w3.org/TR/2001/REC-SVG-20010904/DTD/svg10.dtd">
<svg version="1.0" xmlns="http://www.w3.org/2000/svg"
 width="16.000000pt" height="16.000000pt" viewBox="0 0 16.000000 16.000000"
 preserveAspectRatio="xMidYMid meet">
<metadata>
Created by potrace 1.11, written by Peter Selinger 2001-2013
</metadata>
<g transform="translate(0.000000,16.000000) scale(0.002286,-0.002286)"
fill="#000000" stroke="none">
<path d="M1330 6288 c-211 -21 -396 -134 -515 -314 -45 -67 -90 -179 -102
-250 -4 -27 -8 -1041 -8 -2254 l0 -2205 26 -77 c87 -253 283 -430 535 -481 98
-20 4414 -19 4484 1 160 46 275 114 373 222 77 86 142 214 165 328 4 21 7
1034 7 2252 l0 2215 -26 78 c-90 263 -319 453 -582 483 -84 10 -4262 11 -4357
2z m710 -933 c140 -81 287 -166 325 -188 39 -23 79 -47 90 -53 21 -11 417
-239 590 -339 55 -32 170 -98 255 -147 85 -49 162 -93 170 -98 8 -5 133 -77
277 -160 145 -83 265 -155 267 -158 2 -4 -44 -35 -102 -69 -59 -33 -204 -117
-322 -185 -424 -245 -626 -361 -656 -379 -17 -9 -132 -76 -255 -147 -329 -191
-864 -500 -915 -528 l-44 -25 0 224 0 223 118 68 c64 37 124 71 132 76 13 8
312 180 505 291 33 19 68 39 77 44 9 6 29 17 45 26 15 9 116 67 223 129 107
62 213 123 235 135 22 13 75 43 118 68 43 25 75 47 70 50 -41 24 -454 262
-486 281 -23 13 -109 63 -192 111 -82 48 -170 99 -195 113 -25 14 -126 72
-225 130 -99 57 -200 116 -225 130 -25 14 -80 45 -122 69 l-78 45 0 224 0 223
33 -18 c17 -11 147 -85 287 -166z"/>
</g>
</svg>
